<?xml version="1.0" encoding="utf-8"?>
<!-- Generator: Adobe Illustrator 23.0.6, SVG Export Plug-In . SVG Version: 6.00 Build 0)  -->
<svg version="1.1" id="Layer_1" xmlns="http://www.w3.org/2000/svg" xmlns:xlink="http://www.w3.org/1999/xlink" x="0px" y="0px"
	 viewBox="0 0 250 250" style="enable-background:new 0 0 250 250;" xml:space="preserve">
<style type="text/css">
	.st0{fill:#211F1F;}
</style>
<g>
	<g>
		<path class="st0" d="M108.31,244.55c56.16,0,101.69-45.35,101.69-101.3s-45.53-101.3-101.69-101.3l0.2,28.12
			c40.89,0,74.04,33.02,74.04,73.75s-33.15,73.75-74.04,73.75L108.31,244.55z"/>
	</g>
	<path class="st0" d="M108.31,76.08v40.43c14.79,0.16,26.74,12.17,26.74,26.96c0,14.89-12.1,26.97-27.03,26.97
		c-14.93,0-27.03-12.07-27.03-26.97v-61.7V61.85V8.14H40.79v135.87h0.01c0.39,36.79,30.38,66.5,67.33,66.5
		c37.19,0,67.34-30.09,67.34-67.22C175.48,106.23,145.42,76.17,108.31,76.08z"/>
</g>
</svg>
